<svg width="47" height="47" viewBox="0 0 47 47" fill="none" xmlns="http://www.w3.org/2000/svg">
<path d="M41 4H35.2975L27.5293 18.7849C27.5293 18.7849 27.5261 18.793 27.524 18.7971C27.2896 19.3186 27.1619 19.8797 27.1494 20.4488V20.461L27.14 21.0018L26.6523 20.9937L26.6627 20.4529V20.4326C26.6701 19.8574 26.5602 19.2882 26.3394 18.7566C26.3383 18.7545 26.3373 18.7525 26.3373 18.7515C26.3069 18.6796 26.2745 18.6077 26.241 18.5378L25.1819 16.3371L23.1789 12.1535H17.5916L24.3206 21.4049L3.00105 20.305H3L5.84966 25.0841L22.8785 24.2051C23.4981 24.1524 24.0988 23.9772 24.644 23.6876C24.6513 23.6835 24.6576 23.6805 24.665 23.6764L25.1537 23.4151L25.3902 23.8273L24.9015 24.0896L24.8795 24.1018C24.3018 24.4147 23.8037 24.8492 23.4196 25.3717C23.4112 25.3809 23.4049 25.391 23.3976 25.4001L23.2553 25.5976L21.8708 27.5005L19.2063 31.1636L21.9995 35.8465L26.9139 25.5804L36.591 44L39.4428 39.2219L30.02 25.2077H30.0189C29.6819 24.7925 29.2707 24.44 28.8018 24.1686C28.8018 24.1676 28.8008 24.1676 28.8008 24.1676L28.3225 23.8891L28.5737 23.485L29.0446 23.7595H29.0457L29.0519 23.7635C29.549 24.0522 30.0974 24.2446 30.6667 24.3307L38.2058 24.9879L40.999 20.305L29.3533 21.3198L40.999 4.00203V4H41Z" fill="#EE1C4E"/>
</svg>
