<svg width="173" height="29" viewBox="0 0 173 29" fill="none" xmlns="http://www.w3.org/2000/svg">
<g clip-path="url(#clip0_3_19)">
<path d="M37.7188 12.9819L31.8007 0.236755H35.454L38.9247 8.37584C38.9612 8.48511 38.9978 8.58855 39.0343 8.68544C39.0708 8.78305 39.1074 8.87338 39.1439 8.95861C39.3018 9.40807 39.4114 9.77813 39.4728 10.0695C39.5334 10.3609 39.5641 10.6705 39.5641 10.9983V11.0529H39.8565V10.9983C39.8565 10.61 39.8989 10.2363 39.9844 9.87865C40.0691 9.52098 40.2401 9.0198 40.4959 8.37657L43.9658 0.236755H47.6009L41.6828 12.9819H37.7188Z" fill="black"/>
<path d="M55.8759 13.2186C54.0613 13.2186 52.5149 12.9338 51.236 12.3627C49.957 11.7923 48.9953 11.0063 48.35 10.0047C47.7047 9.00303 47.3817 7.87173 47.3817 6.60858C47.3817 5.34543 47.7039 4.21413 48.35 3.2125C48.9953 2.21087 49.9578 1.42559 51.236 0.854476C52.5149 0.284092 54.0613 -0.00146484 55.8759 -0.00146484C57.6905 -0.00146484 59.2369 0.284092 60.5159 0.854476C61.7948 1.42486 62.7565 2.21087 63.4018 3.2125C64.0472 4.21413 64.3702 5.34616 64.3702 6.60858C64.3702 7.871 64.0472 9.00303 63.4018 10.0047C62.7565 11.0063 61.7941 11.7923 60.5159 12.3627C59.2369 12.9331 57.6905 13.2186 55.8759 13.2186ZM55.8759 10.5787C57.0087 10.5787 57.9675 10.406 58.7531 10.06C59.5388 9.71401 60.1293 9.24051 60.5254 8.63953C60.9207 8.03855 61.1188 7.36181 61.1188 6.60931C61.1188 5.85681 60.9207 5.18007 60.5254 4.57909C60.1293 3.97811 59.5388 3.50461 58.7531 3.1586C57.9675 2.81258 57.0087 2.63993 55.8759 2.63993C54.7432 2.63993 53.7843 2.81331 52.9987 3.1586C52.2131 3.50461 51.6226 3.97811 51.2272 4.57909C50.8311 5.18007 50.6338 5.85681 50.6338 6.60931C50.6338 7.36181 50.8318 8.03855 51.2272 8.63953C51.6226 9.24051 52.2138 9.71401 52.9987 10.06C53.7843 10.406 54.7432 10.5787 55.8759 10.5787Z" fill="black"/>
<path d="M66.0138 12.9819V0.236755H71.0732L77.9049 11.0522H78.2155C78.0569 10.5306 77.9385 10.0207 77.8596 9.52244C77.7799 9.0249 77.7412 8.41809 77.7412 7.70202V0.236755H80.8647V12.9819H75.8045L68.9729 2.16645H68.6623C68.8201 2.68875 68.9392 3.19867 69.0182 3.69621C69.0971 4.19375 69.1366 4.80129 69.1366 5.51736V12.9826H66.0131L66.0138 12.9819Z" fill="black"/>
<path d="M85.4673 12.9819L91.5499 0.236755H95.3677L101.45 12.9819H98.0162L94.308 4.84281C94.0522 4.24839 93.8724 3.75376 93.7694 3.35894C93.6656 2.96484 93.6145 2.58531 93.6145 2.22108V2.16645H93.3221V2.22108C93.3221 2.58531 93.2703 2.96484 93.1672 3.35894C93.0634 3.75376 92.8844 4.24839 92.6286 4.84281L88.9204 12.9819H85.4681H85.4673ZM88.5908 10.8883L89.6505 8.37584H97.2861L98.3275 10.8883H88.5916H88.5908Z" fill="black"/>
<path d="M102.419 12.9819V0.236755H105.67V10.2873H114.383V12.9819H102.419Z" fill="black"/>
<path d="M122.201 13.2186C119.571 13.2186 117.647 12.7845 116.429 11.9169C115.212 11.0493 114.603 9.87501 114.603 8.39405V8.1573H117.909V8.3212C117.909 9.0737 118.241 9.66886 118.904 10.1059C119.568 10.543 120.667 10.7615 122.202 10.7615C123.31 10.7615 124.181 10.6916 124.814 10.5518C125.447 10.4126 125.882 10.221 126.12 9.97845C126.357 9.73587 126.476 9.45687 126.476 9.14072C126.476 8.69199 126.272 8.35471 125.864 8.13035C125.456 7.90598 124.947 7.75446 124.339 7.67506C123.73 7.59639 122.895 7.53228 121.836 7.4842C120.338 7.42374 119.115 7.31447 118.165 7.1564C117.215 6.99905 116.399 6.66469 115.717 6.15476C115.035 5.64484 114.694 4.87996 114.694 3.86084C114.694 2.69531 115.272 1.76069 116.429 1.057C117.586 0.353307 119.504 0.000732422 122.183 0.000732422C123.924 0.000732422 125.355 0.203973 126.476 0.610454C127.596 1.01693 128.412 1.56619 128.923 2.25823C129.435 2.95027 129.69 3.74502 129.69 4.64321V4.7889H126.384V4.64321C126.384 4.2309 126.248 3.86011 125.974 3.53231C125.699 3.2045 125.249 2.94371 124.622 2.74921C123.994 2.55544 123.181 2.45783 122.183 2.45783C120.612 2.45783 119.522 2.60061 118.913 2.88543C118.304 3.17099 118 3.54396 118 4.00508C118 4.39335 118.185 4.68182 118.556 4.86976C118.928 5.05843 119.393 5.18227 119.954 5.24273C120.514 5.30392 121.306 5.352 122.328 5.38842C123.863 5.43723 125.126 5.53703 126.118 5.68855C127.111 5.8408 127.969 6.18317 128.694 6.71714C129.418 7.2511 129.78 8.05823 129.78 9.13854C129.78 10.3769 129.19 11.3662 128.009 12.1063C126.827 12.8471 124.891 13.2172 122.2 13.2172L122.201 13.2186Z" fill="black"/>
<path d="M134.75 12.9819V2.93133H129.489V0.236755H143.262V2.93133H138.001V12.9819H134.75Z" fill="black"/>
<path d="M144.212 12.9819V0.236755H156.907V2.78564H147.464V10.433H156.907V12.9819H144.212ZM147.062 7.64738V5.37167H155.629V7.64738H147.062Z" fill="black"/>
<path d="M158.679 12.9819V0.236755H167.136C168.28 0.236755 169.243 0.407215 170.022 0.746677C170.801 1.08687 171.383 1.56037 171.766 2.16717C172.15 2.77398 172.342 3.46602 172.342 4.24256C172.342 4.95863 172.183 5.60551 171.867 6.18172C171.55 6.75866 171.115 7.2103 170.561 7.53811C170.007 7.86592 169.401 8.02982 168.743 8.02982H167.976L169.054 7.06461V9.23105L168.633 8.32048H168.816C169.328 8.32048 169.754 8.37803 170.095 8.49385C170.436 8.60895 170.737 8.81219 170.999 9.10357C171.261 9.39496 171.519 9.81382 171.775 10.3602L172.999 12.9819H169.127L167.738 9.70455C167.604 9.41317 167.449 9.18297 167.273 9.01252C167.096 8.84278 166.874 8.72404 166.606 8.65775C166.338 8.59147 165.997 8.55723 165.583 8.55723H160.943V6.51827H166.825C167.311 6.51827 167.726 6.43959 168.067 6.28152C168.408 6.12417 168.663 5.90563 168.834 5.6259C169.005 5.3469 169.09 5.0191 169.09 4.64248C169.09 4.26587 169.005 3.95336 168.834 3.66853C168.664 3.3837 168.408 3.16517 168.067 3.01292C167.726 2.8614 167.312 2.78564 166.825 2.78564H161.764V7.8834L161.929 7.91982V12.9819H158.677H158.679Z" fill="black"/>
<path d="M38.8333 28.4056C36.5802 28.4056 34.9366 28.0297 33.9011 27.2765C32.8655 26.524 32.3481 25.4859 32.3481 24.163C32.3481 23.3377 32.5586 22.6245 32.978 22.0235C33.3983 21.4225 34.0801 20.9585 35.0236 20.6307C35.9671 20.3029 37.2124 20.139 38.7588 20.139H38.9415L39.7089 21.9055H39.0328C38.0828 21.9055 37.3249 21.9907 36.7586 22.1605C36.1922 22.3309 35.7873 22.564 35.5439 22.8613C35.3006 23.1585 35.1785 23.514 35.1785 23.9263C35.1785 24.5819 35.4738 25.0918 36.0643 25.456C36.6548 25.8203 37.656 26.0024 39.0694 26.0024C40.0194 26.0024 40.7868 25.9237 41.3707 25.7656C41.9554 25.6083 42.3661 25.4167 42.6036 25.1923C42.8411 24.968 42.9595 24.7283 42.9595 24.4733V24.3094L45.3339 25.4021V25.5114C45.3339 25.9361 45.1059 26.3702 44.6492 26.8131C44.1924 27.2561 43.4769 27.6327 42.5028 27.9423C41.5286 28.2519 40.3045 28.4063 38.8311 28.4063L38.8333 28.4056ZM45.7373 28.4056L33.0789 17.8815V15.4237H44.6601V17.6994H36.9332V18.009L47.2172 26.6026L45.7373 28.4048V28.4056ZM45.2996 25.4378L42.8338 23.672V20.0669H45.2996V25.4378Z" fill="black"/>
<path d="M50.158 28.1688L56.2406 15.4237H60.0584L66.1409 28.1688H62.7068L58.9987 20.0297C58.7429 19.4353 58.5631 18.9407 58.4601 18.5459C58.3563 18.1518 58.3051 17.7722 58.3051 17.408V17.3534H58.0128V17.408C58.0128 17.7722 57.9609 18.1518 57.8579 18.5459C57.7541 18.9407 57.5751 19.4353 57.3193 20.0297L53.6111 28.1688H50.1588H50.158ZM53.2815 26.0752L54.3412 23.5628H61.9768L63.0182 26.0752H53.2823H53.2815Z" fill="black"/>
<path d="M67.1093 28.1688V15.4237H70.3607V25.4742H79.0735V28.1688H67.1093Z" fill="black"/>
<path d="M80.4437 28.1688V15.4237H90.271C91.6837 15.4237 92.7397 15.6998 93.4405 16.2519C94.1407 16.8041 94.4907 17.5602 94.4907 18.5189C94.4907 19.0776 94.3687 19.5657 94.1253 19.9846C93.8819 20.4034 93.5282 20.7312 93.0656 20.968C92.603 21.2047 92.0549 21.3351 91.4213 21.3592L91.8232 20.394V22.5968L91.403 21.6498C92.5358 21.6746 93.4091 21.9594 94.0245 22.5058C94.6391 23.0521 94.9467 23.7922 94.9467 24.7268C94.9467 25.4429 94.7823 26.0563 94.4534 26.5662C94.1246 27.0761 93.6101 27.471 92.91 27.75C92.2098 28.029 91.3117 28.1688 90.2155 28.1688H80.443H80.4437ZM89.869 25.6746C90.4778 25.6746 90.9346 25.5471 91.2393 25.2921C91.5433 25.0372 91.6961 24.6911 91.6961 24.2541C91.6961 23.817 91.5433 23.4528 91.2393 23.1978C90.9346 22.9428 90.4778 22.8154 89.869 22.8154H82.8547V20.5943H89.5584C90.1066 20.5943 90.5231 20.4734 90.8096 20.2301C91.0954 19.9875 91.2386 19.6655 91.2386 19.2648C91.2386 18.8642 91.0954 18.5247 90.8096 18.2814C90.5231 18.0388 90.1066 17.9172 89.5584 17.9172H83.6038V25.6738H89.869V25.6746Z" fill="black"/>
<path d="M26.5366 0.227997H22.5544L17.1296 10.8628C17.1296 10.8628 17.1274 10.8686 17.1259 10.8715C16.9622 11.2467 16.8731 11.6503 16.8643 12.0596V12.0684L16.8577 12.4574L16.5172 12.4516L16.5245 12.0626V12.048C16.5296 11.6342 16.4528 11.2248 16.2986 10.8424C16.2979 10.8409 16.2972 10.8395 16.2972 10.8387C16.276 10.787 16.2533 10.7353 16.2299 10.685L15.4904 9.1021L14.0916 6.09283H10.1898L14.8889 12.7473L0.000730815 11.9562H0L1.99001 15.3938L13.8818 14.7615C14.3145 14.7236 14.734 14.5976 15.1147 14.3893C15.1198 14.3863 15.1242 14.3842 15.1293 14.3812L15.4706 14.1933L15.6358 14.4898L15.2945 14.6785L15.2792 14.6872C14.8757 14.9123 14.5279 15.2248 14.2597 15.6007C14.2538 15.6072 14.2494 15.6145 14.2443 15.6211L14.1449 15.7631L13.1781 17.1319L11.3174 19.7668L13.2679 23.1352L16.6999 15.7508L23.4577 29L25.4492 25.5631L18.8689 15.4827H18.8682C18.6329 15.184 18.3457 14.9305 18.0182 14.7353C18.0182 14.7346 18.0175 14.7346 18.0175 14.7346L17.6835 14.5342L17.8589 14.2436L18.1878 14.441H18.1885L18.1929 14.4439C18.54 14.6515 18.923 14.7899 19.3206 14.8518L24.5854 15.3246L26.5359 11.9562L18.4034 12.6861L26.5359 0.229454V0.227997H26.5366Z" fill="#EE1C4E"/>
</g>
<defs>
<clipPath id="clip0_3_19">
<rect width="173" height="29" fill="white"/>
</clipPath>
</defs>
</svg>
